<?xml version="1.0" standalone="no"?>
<!DOCTYPE svg PUBLIC "-//W3C//DTD SVG 20010904//EN"
 "http://www.w3.org/TR/2001/REC-SVG-20010904/DTD/svg10.dtd">
<svg version="1.0" xmlns="http://www.w3.org/2000/svg"
 width="735.000000pt" height="889.000000pt" viewBox="0 0 735.000000 889.000000"
 preserveAspectRatio="xMidYMid meet">

<g transform="translate(0.000000,889.000000) scale(0.100000,-0.100000)"
fill="#000000" stroke="none">
<path d="M3655 7834 c-231 -27 -380 -71 -570 -166 -257 -129 -507 -376 -646
-638 -55 -103 -106 -238 -134 -351 -29 -122 -45 -248 -33 -255 5 -3 30 -7 56
-10 116 -10 320 -24 359 -24 l43 0 0 39 c0 22 7 73 15 113 80 382 322 663 670
776 128 42 221 56 375 55 220 -1 398 -49 568 -154 255 -157 418 -416 466 -743
14 -95 26 -144 26 -109 0 6 17 11 38 11 34 1 135 10 330 28 84 8 80 -2 58 144
-90 594 -522 1080 -1097 1235 -162 43 -388 64 -524 49z"/>
<path d="M6408 6423 c6 -2 18 -2 25 0 6 3 1 5 -13 5 -14 0 -19 -2 -12 -5z"/>
<path d="M6490 6416 c0 -2 7 -7 16 -10 8 -3 12 -2 9 4 -6 10 -25 14 -25 6z"/>
<path d="M4040 6180 c-8 -5 -10 -10 -5 -10 6 0 17 5 25 10 8 5 11 10 5 10 -5
0 -17 -5 -25 -10z"/>
<path d="M5003 5513 c9 -2 23 -2 30 0 6 3 -1 5 -18 5 -16 0 -22 -2 -12 -5z"/>
<path d="M5208 5513 c6 -2 18 -2 25 0 6 3 1 5 -13 5 -14 0 -19 -2 -12 -5z"/>
<path d="M4790 5506 c0 -15 40 -24 66 -16 l29 10 -30 -4 c-16 -2 -38 0 -47 5
-10 5 -18 7 -18 5z"/>
<path d="M4908 5503 c6 -2 18 -2 25 0 6 3 1 5 -13 5 -14 0 -19 -2 -12 -5z"/>
<path d="M5308 5503 c7 -3 16 -2 19 1 4 3 -2 6 -13 5 -11 0 -14 -3 -6 -6z"/>
<path d="M5348 5493 c6 -2 18 -2 25 0 6 3 1 5 -13 5 -14 0 -19 -2 -12 -5z"/>
<path d="M5398 5483 c7 -3 16 -2 19 1 4 3 -2 6 -13 5 -11 0 -14 -3 -6 -6z"/>
<path d="M4750 5470 c-11 -8 -7 -9 15 -4 37 8 45 14 19 14 -10 0 -26 -5 -34
-10z"/>
<path d="M5460 5470 c8 -5 20 -10 25 -10 6 0 3 5 -5 10 -8 5 -19 10 -25 10 -5
0 -3 -5 5 -10z"/>
<path d="M5547 5439 c7 -7 15 -10 18 -7 3 3 -2 9 -12 12 -14 6 -15 5 -6 -5z"/>
<path d="M4620 5428 c-19 -6 -30 -12 -24 -15 7 -2 27 3 45 11 39 17 29 19 -21
4z"/>
<path d="M5615 5410 c3 -5 11 -10 16 -10 6 0 7 5 4 10 -3 6 -11 10 -16 10 -6
0 -7 -4 -4 -10z"/>
<path d="M4500 5360 c-9 -6 -10 -10 -3 -10 6 0 15 5 18 10 8 12 4 12 -15 0z"/>
<path d="M4409 5325 c-1 -3 -2 -8 -3 -12 -1 -5 -5 -14 -10 -22 -5 -8 1 -7 18
4 30 20 34 27 9 18 -11 -4 -14 -3 -9 5 4 7 5 12 2 12 -3 0 -7 -2 -7 -5z"/>
<path d="M5780 5326 c0 -2 8 -10 18 -17 15 -13 16 -12 3 4 -13 16 -21 21 -21
13z"/>
<path d="M5827 5289 c7 -7 15 -10 18 -7 3 3 -2 9 -12 12 -14 6 -15 5 -6 -5z"/>
<path d="M4354 5258 l-19 -23 23 19 c21 18 27 26 19 26 -2 0 -12 -10 -23 -22z"/>
<path d="M5875 5250 c10 -11 20 -20 23 -20 3 0 -3 9 -13 20 -10 11 -20 20 -23
20 -3 0 3 -9 13 -20z"/>
<path d="M5960 5176 c7 -7 13 -7 20 0 6 6 3 10 -10 10 -13 0 -16 -4 -10 -10z"/>
<path d="M5985 5150 c3 -5 8 -10 11 -10 2 0 4 5 4 10 0 6 -5 10 -11 10 -5 0
-7 -4 -4 -10z"/>
<path d="M4186 5102 c-22 -27 -24 -32 -7 -17 20 17 47 55 39 55 -2 0 -16 -17
-32 -38z"/>
<path d="M6059 5072 c5 -10 18 -25 27 -33 11 -9 9 -2 -6 19 -26 35 -36 42 -21
14z"/>
<path d="M4106 5027 c3 -10 9 -15 12 -12 3 3 0 11 -7 18 -10 9 -11 8 -5 -6z"/>
<path d="M4900 5031 c0 -6 5 -13 11 -17 6 -3 23 -32 37 -63 22 -47 26 -71 26
-151 1 -86 -2 -101 -30 -160 -127 -267 -484 -295 -652 -51 l-42 63 -29 -64
c-43 -94 -61 -171 -68 -284 -31 -527 457 -930 969 -800 52 13 119 36 149 51
416 209 564 712 328 1112 -44 74 -188 219 -261 262 -77 45 -165 79 -246 96
-76 17 -192 20 -192 6z"/>
<path d="M2570 5019 c0 -3 6 -12 14 -18 22 -18 58 -110 66 -169 39 -290 -264
-508 -529 -380 -54 26 -140 109 -163 158 l-17 35 -34 -75 c-46 -99 -67 -199
-67 -312 1 -217 73 -390 225 -543 154 -153 326 -224 546 -225 123 0 225 25
349 87 79 40 110 63 185 138 154 154 225 323 225 538 0 115 -13 190 -51 287
-89 230 -297 409 -543 465 -68 16 -206 25 -206 14z"/>
<path d="M4080 4965 c-7 -9 -11 -17 -9 -20 3 -2 10 5 17 15 14 24 10 26 -8 5z"/>
<path d="M6184 4897 c17 -42 45 -94 46 -86 0 10 -51 119 -56 119 -2 0 2 -15
10 -33z"/>
<path d="M4002 4827 c-12 -23 -22 -46 -22 -52 0 -5 12 12 26 39 14 26 24 49
22 51 -2 2 -14 -15 -26 -38z"/>
<path d="M1345 4789 c-4 -6 -5 -12 -2 -15 2 -3 7 2 10 11 7 17 1 20 -8 4z"/>
<path d="M3921 4604 c0 -11 3 -14 6 -6 3 7 2 16 -1 19 -3 4 -6 -2 -5 -13z"/>
<path d="M3906 4555 c-3 -9 -6 -24 -5 -33 0 -9 5 -4 10 12 9 32 6 48 -5 21z"/>
<path d="M6321 4504 c0 -11 3 -14 6 -6 3 7 2 16 -1 19 -3 4 -6 -2 -5 -13z"/>
<path d="M1252 4470 c0 -14 2 -19 5 -12 2 6 2 18 0 25 -3 6 -5 1 -5 -13z"/>
<path d="M6333 4445 c0 -22 2 -30 4 -17 2 12 2 30 0 40 -3 9 -5 -1 -4 -23z"/>
<path d="M3892 4445 c0 -16 2 -22 5 -12 2 9 2 23 0 30 -3 6 -5 -1 -5 -18z"/>
<path d="M1243 4370 c0 -25 2 -35 4 -22 2 12 2 32 0 45 -2 12 -4 2 -4 -23z"/>
<path d="M6343 4290 c0 -47 2 -66 4 -42 2 23 2 61 0 85 -2 23 -4 4 -4 -43z"/>
<path d="M3882 4270 c0 -52 3 -103 7 -114 4 -10 5 26 3 80 -4 134 -10 150 -10
34z"/>
<path d="M963 2950 c-1 -1498 0 -1567 31 -1612 48 -70 56 -73 280 -76 l202 -3
13 63 c23 117 104 340 172 477 84 170 191 333 311 476 97 115 295 307 363 352
22 15 42 30 45 33 21 29 376 238 434 256 32 10 64 34 46 34 -13 0 -13 2 0 10
11 8 8 9 -13 4 -30 -7 -80 13 -71 28 3 4 0 8 -5 8 -6 0 -11 -6 -11 -14 0 -8
-9 -18 -20 -21 -11 -3 -20 -11 -20 -18 0 -8 3 -8 12 1 14 14 68 16 68 3 0 -4
12 -6 28 -4 20 3 16 -1 -17 -17 -42 -19 -72 -19 -41 0 12 8 10 10 -7 10 -12 0
-24 -4 -28 -10 -3 -5 -14 -2 -25 7 -10 9 -17 19 -15 23 2 3 -6 7 -17 7 -22 2
-38 19 -38 41 0 7 15 12 40 12 28 0 40 4 40 14 0 18 -32 29 -62 22 -13 -3 -17
-3 -10 0 10 5 8 10 -8 21 -16 11 -36 13 -85 8 -36 -4 -68 -12 -72 -18 -5 -9
25 -6 80 7 7 1 9 1 4 -1 -4 -3 -5 -8 -3 -11 2 -4 -17 -7 -42 -7 -29 0 -46 4
-45 11 1 7 -33 13 -95 18 -53 3 -140 16 -192 27 -52 12 -108 22 -123 22 -16 0
-24 3 -18 6 6 4 -6 13 -27 20 -20 7 -63 26 -95 42 -32 17 -63 27 -69 23 -6 -4
-8 -3 -5 3 8 13 -17 24 -37 17 -8 -3 -17 -1 -21 5 -3 7 0 8 9 5 27 -11 17 4
-18 25 -19 12 -41 19 -49 15 -8 -3 -18 -1 -22 5 -3 7 0 8 9 5 9 -3 16 -2 16 4
0 10 -29 26 -43 23 -5 -1 -6 3 -3 8 3 5 -9 20 -27 34 -18 14 -55 47 -81 74
-28 27 -44 38 -37 25 7 -13 10 -26 8 -29 -5 -4 -20 31 -22 48 0 4 -20 34 -44
67 -31 43 -49 59 -62 57 -12 -3 -25 8 -40 31 -25 41 -37 39 -15 -3 12 -24 12
-30 1 -30 -7 0 -11 6 -8 13 2 6 0 15 -6 19 -6 3 -11 15 -11 26 0 10 -4 19 -10
19 -5 0 -10 9 -10 19 0 16 -6 19 -35 16 -28 -2 -44 4 -76 31 -23 19 -49 34
-59 34 -9 0 -33 13 -51 30 -19 16 -42 30 -51 30 -14 0 -18 9 -18 38 0 64 -19
75 -21 12 -2 -34 -4 -43 -6 -24 -3 26 -8 31 -24 27 -13 -4 -19 0 -19 11 0 9 8
16 20 16 15 0 20 7 20 25 0 29 -17 33 -28 8 -4 -10 -9 52 -12 137 -3 85 -6
-432 -7 -1150z m377 675 c0 -8 -4 -15 -10 -15 -5 0 -7 7 -4 15 4 8 8 15 10 15
2 0 4 -7 4 -15z m132 -63 c-7 -2 -12 -8 -12 -14 0 -6 8 -7 18 -3 14 5 15 4 5
-6 -9 -9 -16 -10 -23 -3 -13 13 -2 46 13 37 8 -5 7 -8 -1 -11z m158 -178 c0
-9 -37 15 -51 33 -10 12 -5 11 19 -6 17 -12 32 -24 32 -27z m-40 0 c0 -2 -7
-4 -15 -4 -8 0 -15 4 -15 10 0 5 7 7 15 4 8 -4 15 -8 15 -10z m385 -224 c3 -5
-1 -10 -9 -10 -9 0 -16 5 -16 10 0 6 4 10 9 10 6 0 13 -4 16 -10z m140 -50 c3
-5 2 -10 -4 -10 -5 0 -13 5 -16 10 -3 6 -2 10 4 10 5 0 13 -4 16 -10z m38 -37
c-7 -2 -19 -2 -25 0 -7 3 -2 5 12 5 14 0 19 -2 13 -5z m70 0 c-7 -2 -21 -2
-30 0 -10 3 -4 5 12 5 17 0 24 -2 18 -5z m61 -12 c3 -4 -6 -6 -19 -3 -14 2
-25 6 -25 8 0 8 39 4 44 -5z m341 -1 c8 -13 -5 -13 -25 0 -13 8 -13 10 2 10 9
0 20 -4 23 -10z m-60 -40 c-3 -5 -25 -9 -48 -8 l-42 1 45 7 c25 4 46 8 48 8 2
1 0 -2 -3 -8z m145 -140 c-8 -5 -19 -10 -25 -10 -5 0 -3 5 5 10 8 5 20 10 25
10 6 0 3 -5 -5 -10z m-85 -40 c-28 -12 -37 -12 -30 0 3 6 16 10 28 9 21 0 21
-1 2 -9z"/>
<path d="M1243 4190 c0 -36 2 -50 4 -32 2 17 2 47 0 65 -2 17 -4 3 -4 -33z"/>
<path d="M6332 4149 c-1 -20 -4 -52 -7 -70 l-5 -34 11 33 c5 19 8 50 6 70 l-4
37 -1 -36z"/>
<path d="M1246 4096 c-6 -23 -9 -27 -17 -15 -13 21 -10 -1 7 -41 11 -28 13
-30 9 -7 -3 15 -1 27 5 27 5 0 11 -10 11 -22 1 -14 3 -17 5 -8 3 9 1 33 -4 55
l-8 40 -8 -29z"/>
<path d="M3886 4093 c-6 -14 -5 -15 5 -6 7 7 10 15 7 18 -3 3 -9 -2 -12 -12z"/>
<path d="M3901 4054 c0 -11 3 -14 6 -6 3 7 2 16 -1 19 -3 4 -6 -2 -5 -13z"/>
<path d="M1208 4037 c-3 -19 -2 -25 4 -19 6 6 8 18 6 28 -3 14 -5 12 -10 -9z"/>
<path d="M1120 4025 c0 -9 9 -15 21 -15 18 0 19 2 9 15 -7 8 -16 15 -21 15 -5
0 -9 -7 -9 -15z"/>
<path d="M1260 3986 c0 -13 5 -26 12 -28 6 -2 11 -19 10 -38 -1 -26 2 -31 9
-20 8 12 10 10 6 -8 -3 -14 -1 -20 5 -16 6 4 8 1 6 -7 -3 -8 -10 -13 -15 -12
-5 1 -9 -10 -10 -25 -2 -26 -1 -26 7 -4 5 12 15 22 21 22 7 0 8 -4 2 -12 -16
-22 -33 -68 -25 -68 4 0 14 14 21 32 8 18 16 27 18 21 3 -7 -1 -22 -7 -35 -11
-22 -10 -22 4 -4 17 21 20 15 16 -31 -1 -15 4 -23 14 -23 9 0 16 -7 16 -15 0
-9 7 -18 15 -21 8 -4 13 -10 10 -14 -8 -14 15 -57 31 -57 17 0 17 7 0 29 -7
10 -16 14 -20 10 -5 -4 -7 0 -5 8 1 8 -16 53 -39 100 -22 47 -51 120 -63 163
-23 77 -39 99 -39 53z"/>
<path d="M6281 3912 c-28 -90 -110 -255 -158 -319 -18 -24 -31 -49 -27 -55 4
-6 3 -8 -3 -5 -14 9 -37 -19 -27 -34 4 -7 3 -9 -3 -6 -13 8 -86 -67 -76 -78 5
-4 3 -5 -3 -2 -6 3 -28 -12 -49 -33 -22 -22 -35 -40 -30 -40 4 0 0 -9 -10 -20
-20 -22 -8 -28 15 -8 8 7 8 4 -2 -6 -9 -10 -21 -15 -28 -11 -8 5 -6 12 6 26
28 31 8 22 -53 -24 -32 -24 -67 -47 -77 -51 -19 -6 -19 -7 0 -22 18 -15 18
-15 -2 -5 -16 8 -39 1 -112 -35 -96 -46 -228 -89 -312 -100 -27 -4 -48 -9 -46
-13 2 -3 -69 -5 -157 -5 -231 3 -400 42 -580 137 -70 37 -80 40 -100 28 l-22
-14 20 23 c17 20 18 23 3 17 -11 -4 -17 -2 -15 5 1 6 -4 13 -12 16 -8 2 -11 0
-7 -6 3 -6 2 -13 -3 -17 -6 -3 -8 3 -6 14 3 14 -6 28 -27 42 -95 68 -203 180
-278 290 -21 31 -45 56 -53 56 -9 0 -13 -6 -10 -15 4 -10 8 -11 13 -2 6 9 9 9
15 0 4 -7 1 -16 -6 -22 -11 -7 -9 -8 6 -6 17 3 20 -2 18 -31 -1 -23 2 -30 7
-21 5 8 13 11 17 6 4 -4 -1 -15 -12 -23 -16 -13 -17 -15 -2 -10 9 4 17 3 17
-1 0 -4 14 -13 31 -21 29 -13 77 -76 71 -94 -1 -5 2 -6 8 -2 6 3 22 -3 36 -14
15 -12 22 -21 16 -21 -6 0 -14 5 -17 10 -3 6 -10 10 -16 10 -12 0 -12 -37 1
-45 6 -3 10 -11 10 -16 0 -5 -16 3 -35 18 -19 15 -35 32 -35 37 0 5 7 3 15 -4
9 -7 18 -10 21 -7 3 3 -12 18 -34 34 -35 25 -37 30 -24 43 14 13 15 12 9 -3
-3 -9 -2 -17 3 -17 15 0 21 18 8 26 -15 9 -127 9 -157 -1 -12 -4 -21 -2 -21 4
0 6 -23 13 -51 17 -28 4 -45 10 -39 14 8 5 7 9 -5 14 -23 8 -27 8 -20 -4 3 -5
-15 -7 -47 -5 -57 5 -47 1 47 -17 33 -6 81 -19 107 -29 28 -11 61 -16 83 -14
41 6 98 -26 89 -49 -3 -7 13 -24 37 -40 85 -57 171 -165 214 -272 l24 -59 78
-27 c222 -78 438 -185 607 -301 172 -118 423 -350 536 -497 89 -115 182 -262
243 -385 33 -66 61 -121 63 -123 4 -6 55 39 124 108 264 263 445 631 495 1006
19 148 21 920 2 927 -9 4 -8 8 3 16 11 8 12 13 3 19 -7 4 -14 39 -16 82 -2 41
-3 6 -1 -78 2 -93 0 -161 -6 -173 -8 -14 -22 -19 -50 -19 -22 0 -40 5 -40 10
0 6 18 10 40 10 l40 0 0 85 0 85 -40 0 c-33 0 -40 -3 -40 -20 0 -18 -8 -20
-122 -22 l-123 -3 -1 -40 c0 -68 4 -75 47 -75 22 0 39 -4 39 -10 0 -5 18 -10
40 -10 29 0 40 -4 40 -15 0 -11 -11 -15 -40 -15 -29 0 -40 4 -40 15 0 11 -11
15 -39 15 -34 0 -41 4 -48 27 l-9 26 -22 -37 c-12 -20 -26 -35 -31 -31 -6 3
-14 -3 -20 -12 -17 -29 -13 4 4 37 10 19 20 27 30 24 8 -4 15 -1 15 6 0 6 -4
8 -10 5 -13 -8 -13 5 0 25 8 13 10 12 10 -2 0 -10 5 -18 10 -18 6 0 9 18 8 43
-2 25 2 47 9 55 7 8 11 18 8 23 -4 5 -1 9 5 9 6 0 9 3 7 8 -3 4 3 22 13 40 10
18 20 29 22 25 3 -4 3 -2 1 6 -2 7 4 40 13 73 25 87 12 79 -15 -10z m-155
-359 c0 -10 5 -17 12 -15 8 1 11 -2 7 -9 -5 -8 -12 -6 -22 4 -9 8 -12 20 -9
26 10 16 14 14 12 -6z m-61 -94 c-4 -5 -12 -9 -18 -8 -9 0 -8 2 1 6 6 2 9 10
6 15 -4 7 -2 8 5 4 6 -4 9 -12 6 -17z m-80 -69 c3 -6 -1 -7 -9 -4 -18 7 -21
14 -7 14 6 0 13 -4 16 -10z m-1725 -21 c0 -8 4 -8 14 0 10 9 15 8 19 -3 4 -9
2 -18 -3 -21 -6 -4 -10 -11 -10 -18 0 -8 3 -8 12 1 7 7 17 12 23 12 5 0 1 -7
-9 -15 -28 -21 -12 -31 18 -12 19 13 26 14 35 4 7 -9 7 -17 -1 -27 -8 -12 -9
-12 -4 2 3 10 1 20 -4 23 -12 7 -29 -26 -22 -45 3 -8 -12 2 -32 23 -20 20 -35
41 -32 46 3 5 -1 11 -9 15 -17 6 -21 26 -5 26 6 0 10 -5 10 -11z m100 -119 c0
-5 -2 -10 -4 -10 -3 0 -8 5 -11 10 -3 6 -1 10 4 10 6 0 11 -4 11 -10z m1477
-14 c0 -8 -6 -12 -15 -9 -11 5 -11 7 0 14 7 5 13 9 14 9 0 0 1 -6 1 -14z
m-1443 -42 c9 -24 2 -26 -12 -4 -7 11 -8 20 -3 20 5 0 12 -7 15 -16z m200 -36
c-5 -8 -2 -9 12 -4 10 4 15 4 11 -1 -5 -4 -27 -8 -50 -10 l-42 -2 35 13 c19 8
36 14 38 15 2 0 0 -4 -4 -11z m-163 -55 c-12 -20 -14 -14 -5 12 4 9 9 14 11
11 3 -2 0 -13 -6 -23z m949 -27 c0 -2 -7 -7 -16 -10 -8 -3 -12 -2 -9 4 6 10
25 14 25 6z"/>
<path d="M1235 3940 c-3 -5 1 -10 9 -10 9 0 16 5 16 10 0 6 -4 10 -9 10 -6 0
-13 -4 -16 -10z"/>
<path d="M3931 3934 c0 -11 3 -14 6 -6 3 7 2 16 -1 19 -3 4 -6 -2 -5 -13z"/>
<path d="M6593 3890 c0 -25 2 -35 4 -22 2 12 2 32 0 45 -2 12 -4 2 -4 -23z"/>
<path d="M3944 3881 c1 -16 4 -27 9 -24 4 2 7 -3 7 -11 0 -9 9 -30 21 -48 22
-34 21 -29 -13 57 -24 61 -25 63 -24 26z"/>
<path d="M6299 3833 c4 -43 5 -45 11 -18 5 24 -3 65 -13 65 -1 0 0 -21 2 -47z"/>
<path d="M1175 3840 c3 -5 10 -10 16 -10 5 0 9 5 9 10 0 6 -7 10 -16 10 -8 0
-12 -4 -9 -10z"/>
<path d="M4000 3754 c0 -5 7 -19 15 -30 8 -10 15 -14 15 -8 0 5 -7 19 -15 30
-8 10 -15 14 -15 8z"/>
<path d="M4036 3687 c3 -10 9 -15 12 -12 3 3 0 11 -7 18 -10 9 -11 8 -5 -6z"/>
<path d="M4006 3635 c-9 -26 -7 -32 5 -12 6 10 9 21 6 23 -2 3 -7 -2 -11 -11z"/>
<path d="M3900 3599 c0 -5 5 -7 10 -4 6 3 10 8 10 11 0 2 -4 4 -10 4 -5 0 -10
-5 -10 -11z"/>
<path d="M3975 3540 c3 -5 0 -10 -7 -10 -8 0 -6 -5 5 -11 10 -6 21 -8 24 -5 4
3 1 6 -5 6 -6 0 -9 7 -6 15 4 8 1 15 -6 15 -6 0 -8 -4 -5 -10z"/>
<path d="M3382 3520 c-7 -11 -8 -20 -3 -20 9 0 24 30 18 36 -1 2 -8 -6 -15
-16z"/>
<path d="M3818 3523 c7 -3 16 -2 19 1 4 3 -2 6 -13 5 -11 0 -14 -3 -6 -6z"/>
<path d="M3285 3418 c-46 -47 -54 -59 -25 -35 38 32 108 108 98 107 -2 -1 -34
-33 -73 -72z"/>
<path d="M4069 3431 c8 -5 21 -7 29 -3 9 3 13 1 9 -5 -4 -5 5 -15 18 -21 31
-15 43 3 13 19 -27 15 -90 24 -69 10z"/>
<path d="M4185 3430 c3 -5 8 -10 11 -10 2 0 4 5 4 10 0 6 -5 10 -11 10 -5 0
-7 -4 -4 -10z"/>
<path d="M3189 3333 c-13 -16 -12 -17 4 -4 16 13 21 21 13 21 -2 0 -10 -8 -17
-17z"/>
<path d="M3234 3318 l-19 -23 23 19 c21 18 27 26 19 26 -2 0 -12 -10 -23 -22z"/>
<path d="M3149 3303 c-13 -16 -12 -17 4 -4 9 7 17 15 17 17 0 8 -8 3 -21 -13z"/>
<path d="M3109 3268 c-5 -18 -6 -38 -1 -34 7 8 12 36 6 36 -2 0 -4 -1 -5 -2z"/>
<path d="M3069 3253 c-1 -5 -1 -12 0 -16 1 -5 -4 -7 -11 -4 -13 4 -68 -19 -68
-29 0 -2 10 1 22 7 12 7 31 12 42 13 10 1 20 9 22 19 1 9 0 17 -2 17 -2 0 -5
-3 -5 -7z"/>
<path d="M3134 3218 l-19 -23 23 19 c12 11 22 21 22 23 0 8 -8 2 -26 -19z"/>
<path d="M2932 3183 c-17 -7 4 -33 27 -32 10 0 11 2 4 6 -18 7 -16 21 5 26 14
4 14 5 -3 5 -11 0 -26 -2 -33 -5z"/>
<path d="M2896 3163 c-4 -4 -15 -8 -24 -10 -10 -1 -29 -7 -43 -13 -22 -10 -22
-10 6 -4 17 3 41 8 55 11 29 5 34 9 22 17 -5 3 -12 2 -16 -1z"/>
<path d="M2740 3114 c-25 -7 -58 -13 -75 -14 -19 -2 -5 -7 40 -16 87 -16 95
-16 95 -4 0 6 -24 11 -52 12 -46 1 -48 2 -14 5 21 3 45 11 53 19 17 16 14 16
-47 -2z"/>
<path d="M3062 3110 c-14 -23 -15 -30 -3 -30 8 0 24 41 18 47 -2 1 -8 -7 -15
-17z"/>
<path d="M2713 3063 c9 -2 23 -2 30 0 6 3 -1 5 -18 5 -16 0 -22 -2 -12 -5z"/>
<path d="M3040 3056 c0 -8 -6 -17 -12 -19 -8 -3 -6 -6 5 -6 11 -1 17 6 17 19
0 11 -2 20 -5 20 -3 0 -5 -6 -5 -14z"/>
<path d="M2980 3020 c0 -5 6 -10 13 -11 6 -1 1 -5 -13 -10 -20 -7 -18 -8 14
-4 58 6 63 17 14 29 -17 4 -28 2 -28 -4z"/>
<path d="M2660 2986 c0 -2 13 -6 29 -8 17 -2 28 -1 25 4 -5 8 -54 12 -54 4z"/>
<path d="M2890 2960 c-18 -12 -2 -12 25 0 13 6 15 9 5 9 -8 0 -22 -4 -30 -9z"/>
<path d="M4381 2876 c-33 -22 -60 -48 -68 -66 -35 -85 -135 -212 -273 -351
-117 -118 -157 -152 -207 -175 -53 -25 -62 -32 -56 -49 4 -11 7 -30 6 -42 0
-13 3 -23 8 -23 41 0 239 174 336 295 18 22 43 54 56 70 28 34 130 201 140
227 3 9 23 26 44 36 52 27 75 55 71 86 l-3 27 -54 -35z"/>
<path d="M3060 2886 c0 -2 7 -7 16 -10 8 -3 12 -2 9 4 -6 10 -25 14 -25 6z"/>
<path d="M3139 2829 c12 -13 25 -36 28 -51 3 -16 9 -28 14 -28 5 0 9 -8 9 -17
0 -14 2 -15 9 -5 6 10 27 2 87 -34 106 -63 327 -171 388 -189 53 -16 119 -21
82 -6 -16 6 -17 8 -4 13 9 4 21 1 27 -5 7 -7 14 -8 21 -1 7 7 -2 14 -25 23
-19 7 -35 16 -35 20 0 5 -21 14 -47 21 -52 14 -267 122 -425 213 -53 31 -109
59 -124 63 l-28 7 23 -24z"/>
<path d="M3120 2810 c0 -5 5 -10 10 -10 6 0 10 5 10 10 0 6 -4 10 -10 10 -5 0
-10 -4 -10 -10z"/>
<path d="M3229 2675 c17 -33 31 -51 31 -40 0 6 -10 21 -21 35 -13 17 -17 18
-10 5z"/>
<path d="M3287 2594 c12 -17 30 -37 40 -45 13 -10 12 -6 -4 17 -12 17 -30 37
-40 45 -13 10 -12 6 4 -17z"/>
<path d="M3771 2543 c7 -8 20 -9 41 -2 43 12 42 14 -7 14 -32 0 -41 -3 -34
-12z"/>
<path d="M3351 2498 c-13 -20 -12 -22 1 -11 8 7 18 10 22 6 4 -4 4 0 0 10 -8
21 -6 21 -23 -5z"/>
<path d="M3422 2402 c-9 -6 -7 -13 10 -28 17 -14 19 -15 9 -2 -7 9 -10 22 -6
28 7 12 4 12 -13 2z"/>
<path d="M3718 2253 c7 -3 16 -2 19 1 4 3 -2 6 -13 5 -11 0 -14 -3 -6 -6z"/>
<path d="M3791 1429 c-1 -42 -4 -97 -7 -123 l-7 -46 529 0 c526 1 697 8 844
35 46 9 55 15 39 27 -10 7 -8 8 6 2 31 -12 63 -7 160 25 74 24 84 30 55 30
-19 1 -52 -8 -73 -19 -39 -21 -74 -28 -47 -9 11 8 9 9 -10 3 -14 -4 -31 -9
-37 -11 -8 -3 -13 3 -14 13 0 11 -3 14 -6 7 -3 -8 -15 -11 -31 -8 -23 5 -24 4
-7 -4 l20 -10 -20 0 c-11 0 -31 2 -45 6 l-25 7 25 7 25 7 -27 1 c-16 1 -28 -3
-28 -9 0 -13 -27 -13 -32 1 -2 7 -62 10 -180 10 -105 -1 -178 2 -180 8 -2 6
-137 15 -318 22 -181 7 -318 17 -322 22 -4 6 -49 8 -121 4 -114 -7 -116 -7
-123 15 l-8 23 -6 -25 c-6 -22 -8 -20 -17 20 -11 45 -11 45 -12 -31z m1354
-99 c3 -6 -1 -7 -9 -4 -18 7 -21 14 -7 14 6 0 13 -4 16 -10z"/>
<path d="M5635 1470 c-3 -6 1 -7 9 -4 18 7 21 14 7 14 -6 0 -13 -4 -16 -10z"/>
<path d="M5495 1420 c-16 -7 -17 -9 -3 -9 9 -1 20 4 23 9 7 11 7 11 -20 0z"/>
<path d="M5447 1408 c7 -8 10 -17 7 -21 -3 -3 4 -3 15 0 25 6 25 6 -9 23 -22
12 -24 11 -13 -2z"/>
</g>
</svg>
